HIERARCHY
ROOT hip
{
	OFFSET 0.000000 0.000000 0.000000 
	CHANNELS 6 Xposition Yposition Zposition Xrotation Zrotation Yrotation
	JOINT abdomen
	{
		OFFSET 0.000000 3.402643 0.000000 
		CHANNELS 3 Xrotation Zrotation Yrotation
		JOINT chest
		{
			OFFSET 0.000000 8.438565 -0.680529 
			CHANNELS 3 Xrotation Zrotation Yrotation
			JOINT neck
			{
				OFFSET 0.000000 10.207942 -0.272212 
				CHANNELS 3 Xrotation Zrotation Yrotation
				JOINT head
				{
					OFFSET 0.000000 3.130431 0.000000 
					CHANNELS 3 Xrotation Zrotation Yrotation
					End Site
					{
						OFFSET 0.000000 3.130435 0.000000 
					}
				}
			}
			JOINT lCollar
			{
				OFFSET 3.470700 6.669187 -0.816635 
				CHANNELS 3 Yrotation Zrotation Xrotation
				JOINT lShldr
				{
					OFFSET 3.198488 0.000000 0.000000 
					CHANNELS 3 Zrotation Yrotation Xrotation
					JOINT lForeArm
					{
						OFFSET 10.139888 0.000000 0.000000 
						CHANNELS 3 Yrotation Zrotation Xrotation
						JOINT lHand
						{
							OFFSET 8.370511 0.000000 0.000000 
							CHANNELS 3 Zrotation Yrotation Xrotation
							End Site
							{
								OFFSET 4.083176 0.000000 0.000000 
							}
						}
					}
				}
			}
			JOINT rCollar
			{
				OFFSET -3.470700 6.669187 -0.816635 
				CHANNELS 3 Yrotation Zrotation Xrotation
				JOINT rShldr
				{
					OFFSET -3.198488 0.000000 0.000000 
					CHANNELS 3 Zrotation Yrotation Xrotation
					JOINT rForeArm
					{
						OFFSET -10.139888 0.000000 0.000000 
						CHANNELS 3 Yrotation Zrotation Xrotation
						JOINT rHand
						{
							OFFSET -8.370511 0.000000 0.000000 
							CHANNELS 3 Zrotation Yrotation Xrotation
							End Site
							{
								OFFSET -4.083176 0.000000 0.000000 
							}
						}
					}
				}
			}
		}
	}
	JOINT lThigh
	{
		OFFSET 5.308129 -1.633274 1.361059 
		CHANNELS 3 Xrotation Zrotation Yrotation
		JOINT lShin
		{
			OFFSET -2.041588 -20.007561 0.000000 
			CHANNELS 3 Xrotation Zrotation Yrotation
			JOINT lFoot
			{
				OFFSET 0.000000 -19.190928 -1.224953 
				CHANNELS 3 Xrotation Yrotation Zrotation
				End Site
				{
					OFFSET 0.000000 -2.449906 4.627600 
				}
			}
		}
	}
	JOINT rThigh
	{
		OFFSET -5.308129 -1.633274 1.361059 
		CHANNELS 3 Xrotation Zrotation Yrotation
		JOINT rShin
		{
			OFFSET 2.041588 -20.007561 0.000000 
			CHANNELS 3 Xrotation Zrotation Yrotation
			JOINT rFoot
			{
				OFFSET 0.000000 -19.190928 -1.224953 
				CHANNELS 3 Xrotation Yrotation Zrotation
				End Site
				{
					OFFSET 0.000000 -2.449906 4.627600 
				}
			}
		}
	}
}
MOTION
Frames: 18
Frame Time: 0.033333
3.082284 47.730690 4.180485 -5.455787 3.823945 2.682194 0.000000 0.000000 0.000000 -9.330988 -15.740623 33.138634 -21.039120 23.571276 -27.020761 22.192156 -15.497035 -8.333673 -3.521967 9.154817 6.304141 -89.460098 12.933615 3.882331 -91.151543 -14.309156 -68.549583 -31.939112 -17.924788 2.109145 3.089181 -14.089146 8.026228 -4.468921 10.385056 -58.907097 91.062180 22.647987 66.647064 25.858683 -29.662596 -14.571766 -11.326448 16.499367 13.981455 47.328480 -3.615372 -37.022373 -12.250799 -2.873101 17.493032 -8.750237 -31.190660 -21.833147 44.567238 -7.758848 35.073605 -13.620805 1.267769 -7.859635 
2.794314 47.568775 4.363207 -3.052492 1.997534 6.810995 0.000000 0.000000 0.000000 -9.814242 -16.456036 29.913033 -29.860693 24.138521 -30.625517 27.516811 -13.332159 -9.105429 -3.521967 9.154817 6.304141 -103.686302 27.094316 -19.738663 -85.685593 -11.700403 -60.620598 -30.723785 -16.030453 1.113735 3.089181 -14.089146 8.026228 -18.519035 -3.044946 -54.602276 88.543221 21.291004 63.518295 1.380020 -2.497026 -8.100878 -15.611685 18.245481 12.369905 48.437351 -2.779619 -38.836334 -12.446940 -3.020108 18.154755 -7.568582 -29.794596 -24.020630 44.005917 -5.499405 32.115616 -16.100992 1.507464 -8.142769 
2.334786 47.145622 4.691267 -3.894922 1.265433 10.989222 0.000000 0.000000 0.000000 -9.793523 -16.393810 26.402449 -28.182631 31.387869 -37.566917 23.440739 -18.503386 -10.192245 -3.521967 9.154817 6.304141 -108.874306 30.944962 -18.751863 -86.785843 -8.269158 -60.062332 -30.017752 -0.085300 -4.347423 3.089181 -14.089146 8.026228 -17.575821 -5.096046 -64.990219 86.870079 23.364420 83.359283 -11.268108 -16.404766 -8.685587 -17.241894 19.280422 10.584541 50.569107 -1.548442 -40.389866 -12.920656 -3.240900 18.962755 -4.562717 -28.928997 -26.158796 46.154911 -4.689902 29.819431 -18.880558 1.764682 -8.514140 
2.068265 46.789082 4.979528 -5.098305 1.373427 12.405981 0.000000 0.000000 0.000000 -8.618469 -15.541699 25.158436 -19.425285 32.090179 -35.107544 20.181055 -19.336157 -10.471208 -3.521967 9.154817 6.304141 -104.312439 30.535736 -4.934034 -90.708466 -3.988497 -45.816154 -29.520741 -4.444855 -2.978937 3.089181 -14.089146 8.026228 -17.102280 -3.863171 -68.242340 88.895157 22.435247 74.031799 -15.222060 -10.590327 -8.901452 -16.951975 19.724691 10.119312 51.940933 -1.029675 -40.225574 -14.028434 -3.608984 19.992577 -3.340618 -28.915749 -26.972973 48.760868 -4.923503 28.957464 -19.804657 1.852917 -8.653783 
1.906355 46.552082 5.145854 -5.439363 1.249718 12.346944 0.000000 0.000000 0.000000 -8.184842 -14.984213 23.154543 -16.676353 32.378864 -32.419548 21.388611 -22.595093 -8.893454 -3.521967 9.154817 6.304141 -100.272224 29.069756 -8.646543 -95.115715 -9.104860 -54.867908 -26.997620 -13.721125 -0.576763 3.089181 -14.089146 8.026228 -19.108786 -1.673509 -65.823601 90.254120 22.831272 73.501068 -18.416973 -8.482122 -9.137854 -17.185486 20.455627 10.030567 53.342316 -0.653383 -41.817417 -14.111011 -3.551775 19.566179 -3.272027 -28.857098 -27.191444 50.095493 -4.976850 28.474882 -21.191090 2.039921 -8.941243 
1.835930 46.337879 5.268393 -5.890729 1.824111 10.552349 0.000000 0.000000 0.000000 -7.186852 -15.636466 22.422642 -18.257378 30.848310 -30.875208 23.628969 -19.921543 -8.335276 -3.521967 9.154817 6.304141 -98.305428 28.384375 -12.021597 -95.297150 -8.762306 -50.075722 -29.629715 -14.308403 0.264359 3.089181 -14.089146 8.026228 -19.019812 -0.694618 -65.999252 92.206573 23.151632 72.333954 -20.007973 -9.307638 -9.095851 -16.053978 20.642967 10.905162 54.088680 -1.038220 -41.486427 -14.532749 -3.674533 19.833578 -4.124305 -29.582119 -26.454844 51.378891 -5.726510 29.405283 -22.166790 2.181060 -9.182363 
1.909997 46.179249 5.296547 -6.360034 1.853894 8.608139 0.000000 0.000000 0.000000 -5.351603 -15.562383 21.284822 -22.207268 28.141682 -30.368910 26.027948 -18.391184 -8.557497 -3.521967 9.154817 6.304141 -98.683640 29.287710 -12.084496 -95.760208 -8.811147 -52.210972 -26.640699 -13.943139 -0.607480 3.089181 -14.089146 8.026228 -19.072517 -0.891523 -68.690399 93.162506 23.671059 72.408340 -20.843403 -10.665791 -8.955872 -15.097705 20.810261 11.613657 54.820164 -1.229684 -39.600422 -15.224374 -3.899502 20.287716 -4.913040 -30.047880 -25.898703 51.920860 -6.177444 30.747593 -22.508783 2.256850 -9.354168 
2.055343 46.035831 5.288744 -6.490029 1.434076 7.150831 0.000000 0.000000 0.000000 -5.915159 -13.147302 21.064053 -20.262348 27.185907 -29.301836 26.455090 -18.501514 -8.893779 -3.521967 9.154817 6.304141 -100.785324 28.989017 -11.865937 -93.063469 -7.977901 -51.335995 -26.325680 -14.022266 -0.653524 3.089181 -14.089146 8.026228 -21.296598 1.184237 -67.529503 91.689346 23.009083 72.907471 -21.492426 -10.485985 -8.984985 -14.832335 21.070593 11.848008 55.657047 -1.209092 -38.279003 -16.283964 -4.181740 20.875526 -5.831632 -30.199411 -25.476690 52.385777 -6.272026 31.775515 -22.340439 2.239596 -9.373683 
2.154019 45.961414 5.230868 -6.560444 1.155976 5.890030 0.000000 0.000000 0.000000 -6.172994 -13.119651 21.908550 -19.592241 29.255665 -30.494753 24.376017 -19.444208 -8.602235 -3.521967 9.154817 6.304141 -100.882195 28.193972 -10.536519 -92.486977 -7.900059 -50.580307 -26.251591 -14.277925 -0.592512 3.089181 -14.089146 8.026228 -19.599295 -0.075890 -67.518684 91.696037 22.930187 72.622421 -21.952629 -10.731076 -8.953567 -14.577456 21.273344 12.151435 56.126972 -1.266877 -37.775883 -16.834013 -4.321139 21.071962 -6.592595 -30.290049 -25.036551 52.481335 -6.348106 32.688217 -22.383633 2.274106 -9.465459 
2.246073 45.990726 5.179442 -6.674072 1.274294 5.069710 0.000000 0.000000 0.000000 -5.850773 -13.073475 21.602234 -20.564798 28.894876 -30.478466 25.294003 -19.792810 -8.600306 -3.521967 9.154817 6.304141 -100.681145 27.549427 -11.120652 -92.139534 -8.169738 -51.043556 -25.855551 -14.452086 -0.654812 3.089181 -14.089146 8.026228 -19.611216 -0.207795 -68.749962 91.516533 23.141615 72.804314 -22.099598 -11.206141 -8.899768 -14.020327 21.203236 12.843756 55.923923 -1.645859 -36.449940 -16.748869 -4.372877 21.249771 -6.954518 -30.572552 -24.814020 52.271969 -6.471455 33.303638 -21.924839 2.240682 -9.435321 
2.300776 45.990028 5.169891 -6.882857 1.216637 4.678958 0.000000 0.000000 0.000000 -5.350770 -13.117636 21.302515 -21.378687 29.473530 -31.105173 25.100019 -20.011253 -8.486964 -3.521967 9.154817 6.304141 -99.826469 27.141193 -11.453064 -93.302902 -8.761417 -51.472923 -26.294281 -14.386996 -0.559341 3.089181 -14.089146 8.026228 -19.550232 -1.179637 -69.323067 92.319977 23.227049 72.303429 -22.715536 -11.153234 -8.907280 -13.621235 21.284189 13.194715 55.891167 -1.775210 -35.763729 -16.993402 -4.420372 21.463737 -6.993526 -30.531065 -24.617193 52.231770 -6.605546 33.473812 -21.952757 2.234347 -9.451061 
2.334168 46.004765 5.193578 -6.832367 1.002537 4.659026 0.000000 0.000000 0.000000 -5.422225 -12.316113 20.431366 -19.768553 29.037508 -30.051497 24.605021 -19.690115 -8.312848 -3.521967 9.154817 6.304141 -99.573715 26.983335 -12.265128 -93.575890 -9.231517 -52.461571 -26.445505 -14.388376 -0.520517 3.089181 -14.089146 8.026228 -20.628334 -0.079937 -70.387924 92.530823 23.473982 73.203285 -23.467037 -11.897923 -8.800815 -13.681002 21.374945 13.084808 55.954247 -1.750775 -35.497856 -17.141666 -4.497431 21.525759 -6.963632 -30.262966 -24.541161 52.065586 -6.556651 33.261387 -21.849310 2.201434 -9.379607 
2.376020 46.024082 5.217901 -6.682467 0.934468 4.610035 0.000000 0.000000 0.000000 -5.647069 -12.243678 20.174858 -20.001669 28.976774 -30.113794 25.611423 -18.829515 -8.496048 -3.521967 9.154817 6.304141 -99.427254 26.884651 -12.505974 -94.006935 -9.224061 -51.861397 -26.561338 -14.328568 -0.503850 3.089181 -14.089146 8.026228 -20.887655 -0.215846 -70.524399 92.633324 23.555195 73.844048 -25.369118 -13.216603 -8.585825 -13.739547 21.355572 13.127495 55.868977 -1.757279 -35.436169 -17.211506 -4.503963 21.580067 -7.051884 -30.190092 -24.431889 51.890343 -6.547313 33.204494 -21.918909 2.204571 -9.367287 
2.423362 46.022831 5.213425 -6.477372 0.749878 4.258214 0.000000 0.000000 0.000000 -6.060351 -12.221572 20.342819 -20.039009 29.231327 -30.296909 25.331413 -18.812071 -8.452814 -3.521967 9.154817 6.304141 -99.543007 26.848616 -13.031095 -94.323769 -9.659318 -52.760239 -26.566330 -14.406749 -0.482407 3.089181 -14.089146 8.026228 -21.300297 -0.480975 -70.061409 92.476639 23.816902 76.096947 -26.853851 -16.043827 -8.074699 -13.807402 21.578846 13.352226 55.929325 -1.853846 -35.382965 -17.280226 -4.510786 21.589529 -7.491252 -29.985582 -24.058535 51.792305 -6.605404 33.286934 -21.829666 2.180536 -9.369569 
2.443433 45.960636 5.200192 -6.529370 0.603947 4.062788 0.000000 0.000000 0.000000 -6.013076 -12.411741 20.147223 -20.888058 29.746758 -30.995760 24.952887 -19.841808 -8.384451 -3.521967 9.154817 6.304141 -99.668602 26.438114 -13.109916 -94.104271 -9.766587 -52.989033 -26.641970 -14.329238 -0.482098 3.089181 -14.089146 8.026228 -21.272606 -0.398458 -70.692398 92.409744 23.909031 76.571167 -27.805468 -16.718266 -7.903694 -13.817496 21.784603 13.438313 56.222530 -1.853678 -35.390289 -17.503185 -4.627924 21.808329 -7.696110 -29.878338 -23.836210 52.047195 -6.694122 33.315041 -22.033245 2.231682 -9.419829 
2.409878 45.871838 5.162237 -6.587193 0.477313 4.062684 0.000000 0.000000 0.000000 -5.663304 -12.580784 19.749041 -22.069466 29.373306 -31.207825 25.474369 -19.847052 -8.476963 -3.521967 9.154817 6.304141 -99.862373 25.939232 -13.171711 -93.757484 -9.749854 -52.759747 -26.632103 -14.155584 -0.531714 3.089181 -14.089146 8.026228 -21.878031 -0.480454 -71.169174 92.522408 24.037750 77.133293 -28.611298 -17.227070 -7.766696 -14.012470 22.047276 13.417692 56.611691 -1.853128 -35.498428 -17.700161 -4.656638 21.942537 -7.959151 -29.735880 -23.572474 52.522160 -6.798479 33.209812 -22.132244 2.265314 -9.422816 
2.340817 45.730946 5.093384 -6.568711 0.438223 4.287282 0.000000 0.000000 0.000000 -5.468207 -12.650723 18.811035 -21.597176 28.160175 -30.027670 25.120850 -19.110312 -8.283604 -3.521967 9.154817 6.304141 -100.263657 25.186850 -13.487088 -93.111488 -9.623515 -52.780354 -26.526123 -14.250114 -0.530062 3.089181 -14.089146 8.026228 -23.282846 0.362238 -70.981331 92.420158 24.168049 78.423843 -29.390909 -17.758389 -7.628282 -14.588511 22.252048 13.171098 57.290665 -1.722786 -35.654900 -17.723305 -4.690617 22.002169 -8.320384 -29.707033 -23.387409 53.301540 -6.943746 32.912937 -22.712059 2.311575 -9.537019 
2.254538 45.547955 5.005775 -6.698557 0.360084 4.756011 0.000000 0.000000 0.000000 -5.241075 -13.639371 19.011297 -22.885653 30.469870 -32.212925 24.100489 -21.211712 -8.101377 -3.521967 9.154817 6.304141 -99.850159 23.365583 -12.302985 -92.512726 -9.874157 -53.261219 -26.370928 -14.092291 -0.627431 3.089181 -14.089146 8.026228 -22.512608 -0.601444 -69.009323 93.011688 24.383427 80.227806 -30.582209 -21.593740 -6.731561 -15.311259 22.438404 12.687649 58.203144 -1.455106 -35.852924 -17.684542 -4.712430 22.066214 -8.555391 -29.643703 -23.298025 54.283356 -7.055242 32.658501 -23.165264 2.362134 -9.646144 
